<svg width="219" height="188" viewBox="0 0 219 188" fill="none" xmlns="http://www.w3.org/2000/svg">
<path fill-rule="evenodd" clip-rule="evenodd" d="M172.806 112.928C172.806 112.928 172.806 112.928 172.531 113.087C172.343 113.31 172.343 113.31 172.343 113.31L172.331 113.307L172.294 113.298L172.147 113.263C172.017 113.233 171.826 113.188 171.58 113.133C171.088 113.022 170.377 112.866 169.498 112.687C167.739 112.329 165.314 111.878 162.642 111.506C159.97 111.134 157.057 110.843 154.323 110.802C151.579 110.761 149.053 110.973 147.145 111.587L147.178 111.169C149.22 110.512 151.841 110.303 154.595 110.344C157.358 110.386 160.294 110.68 162.976 111.053C165.659 111.427 168.094 111.88 169.858 112.239C170.74 112.419 171.455 112.575 171.949 112.687C171.96 112.689 171.972 112.692 171.983 112.694C171.932 112.589 171.875 112.47 171.813 112.337C171.541 111.757 171.167 110.926 170.757 109.921C169.938 107.912 168.977 105.203 168.411 102.411C167.846 99.6267 167.668 96.734 168.444 94.3614C168.832 93.1736 169.468 92.0858 170.453 91.2025C171.448 90.3094 172.752 89.667 174.391 89.335L174.264 89.7779C172.748 90.0851 171.629 90.6576 170.8 91.4008C169.961 92.154 169.373 93.1243 169.001 94.2624C168.256 96.5416 168.418 99.3719 168.982 102.15C169.544 104.922 170.5 107.617 171.316 109.62C171.724 110.621 172.097 111.448 172.367 112.025C172.503 112.314 172.612 112.54 172.688 112.693C172.726 112.77 172.756 112.829 172.776 112.869L172.798 112.913L172.806 112.928ZM172.531 113.087L172.343 113.31L173.098 113.494L172.806 112.928L172.531 113.087Z" fill="white"/>
<path fill-rule="evenodd" clip-rule="evenodd" d="M115.487 74.6071C136.846 79.7611 154.462 89.6036 162.938 103.437L162.395 103.77C153.961 90.0051 136.417 80.1928 115.113 75.0521C93.8092 69.9114 68.7692 69.448 45.3674 74.3577L45.4892 73.9158C69.0045 68.9823 94.1286 69.4532 115.487 74.6071Z" fill="white"/>
</svg>
